<svg xmlns="http://www.w3.org/2000/svg" xmlns:xlink="http://www.w3.org/1999/xlink" width="14" height="14" viewBox="0 0 14 14"><defs><path id="plkea" d="M1301.96 182.46a4.26 4.26 0 0 1-3.05-1.29 4.45 4.45 0 0 1 0-6.22 4.26 4.26 0 0 1 6.11 0 4.45 4.45 0 0 1 0 6.22 4.26 4.26 0 0 1-3.06 1.29zm7.8 2.12l-2.89-2.94-.06-.05a6.13 6.13 0 0 0-.63-7.81 5.9 5.9 0 0 0-8.43 0 6.13 6.13 0 0 0 0 8.57 5.9 5.9 0 0 0 7.94.44l.02.03 2.89 2.94a.8.8 0 0 0 1.16 0 .84.84 0 0 0 0-1.18z"/></defs><g><g transform="translate(-1296 -172)"><use fill="#74cfb7" xlink:href="#plkea"/></g></g></svg>